<svg version="1.1" viewBox="0 0 135.16 170.74" xmlns="http://www.w3.org/2000/svg">
<path d="m66.981 2.1423c-5.1814 0.14468-10.268 3.2169-12.466 7.9692-1.3887 2.8087-1.4647 6.1665-0.32188 9.0716 1.0577 2.9342 2.9745 5.4298 4.5743 8.0706 1.1404 2.1153 0.22777 4.7231-1.402 6.3048-2.1704 2.2454-5.4078 3.3114-8.4954 2.9568-12.161-0.507-24.18-2.892-36.24-4.6212-1.5313-0.22637-3.0655-0.42678-4.6006-0.6289-1.9831 12.78-5.3909 25.393-5.877 38.376-0.0065 4.8432 4.3851 9.3051 9.2559 9.2356 2.4739 7e-3 4.4656-1.6247 6.6017-2.6333 3.4985-1.8296 7.5016-3.2692 11.495-2.48 2.3346 0.43089 4.6201 1.4668 6.489 3.0196 2.5607 2.0916 4.3563 5.485 4.1923 8.9093-0.03543 1.6006-0.48526 3.2156-1.1626 4.523-1.628 3.2138-4.7527 5.4622-8.1078 6.4466-3.4565 1.0835-7.2048 0.45272-10.457-0.98918-2.2646-0.92553-4.296-2.2346-6.5113-3.2664-3.1261-1.296-6.7973-0.0589-9.0531 2.3164-1.9486 1.952-3.0394 4.7607-2.6995 7.5217 0.64907 12.586 3.9056 24.831 5.834 37.23 13.134-1.6839 26.119-4.4475 39.354-5.1895 2.0203-0.0945 4.2188-0.32296 6.1827 0.47455 2.6476 0.9667 5.219 3.0813 5.6718 6.0018 0.3022 1.7305-0.70096 3.2668-1.6584 4.6036-2.1108 3.1936-4.2885 6.7224-4.1846 10.694 0.15498 5.0189 3.7626 9.5002 8.3248 11.364 5.4421 2.3353 12.274 1.1246 16.398-3.1853 2.8458-2.8711 4.3813-7.2006 3.3042-11.182-0.86305-3.5246-3.108-6.457-4.993-9.4818-1.1712-2.0821-0.3387-4.7008 1.2683-6.2986 2.184-2.3357 5.5116-3.4218 8.6659-3.051 12.164 0.51425 24.205 2.8976 36.276 4.6254 1.4991 0.22169 3.0013 0.41612 4.5036 0.61873 1.9758-12.772 5.3841-25.373 5.8699-38.346 0.011-4.8456-4.3846-9.3091-9.2566-9.2394-2.4733-5e-3 -4.4636 1.6256-6.6 2.6329-3.4983 1.8296-7.5017 3.2692-11.495 2.4804-2.8024-0.49552-5.6319-1.9811-7.5691-4.0371-2.7265-2.7937-3.8554-7.0884-2.5979-10.818 1.4124-4.4546 5.7237-7.5754 10.153-8.3728 3.9873-0.79731 7.9904 0.6333 11.485 2.4623 2.157 1.0173 4.168 2.6681 6.6678 2.648 5.179 0.0488 9.7516-5.0083 9.1807-10.16-0.62394-12.663-3.8908-24.975-5.8311-37.453-13.142 1.6752-26.133 4.4479-39.375 5.1855-2.0377 0.10042-4.2392 0.32194-6.2121-0.48215-2.615-0.95942-5.1249-3.032-5.6356-5.8948-0.32677-1.7222 0.61991-3.2896 1.593-4.6193 2.1146-3.1942 4.3056-6.7067 4.2421-10.678-0.10716-5.0226-3.6881-9.5325-8.2357-11.433-2.0542-0.88896-4.3104-1.2834-6.5447-1.2019z" fill="none" stroke="#0e0f0f" stroke-width="4.263"/>
</svg>
