<svg width="42.23mm" height="56.171mm" version="1.1" viewBox="0 0 149.63 199.03" xmlns="http://www.w3.org/2000/svg">
<g transform="translate(0 -804.33)" stroke="#000">
<path d="m42.259 1002.8c-2.2224-0.2267-4.7225-0.6821-5.5559-1.012s-9.3384-2.8569-18.9-5.6157c-9.5617-2.7588-17.452-5.0834-17.535-5.1657-0.2391-0.2392 2.2788-42.512 2.8639-48.081 2.2676-21.584 6.0483-32.161 14.865-41.586 7.5909-8.1149 14.922-11.772 27.545-13.739 5.5107-0.85889 39.443-1.2311 47.621-0.52237 13 1.1267 21.306 3.104 29.123 6.9332 3.9457 1.9327 5.526 3.0883 9.1422 6.6852 9.4197 9.3693 13.766 22.358 15.854 47.383 1.1656 13.966 2.4884 42.597 1.9903 43.079-0.9176 0.8884-17.737 5.5971-23.365 6.5414-20.441 3.4292-70.257 6.467-83.648 5.1006z" fill="#030904" stroke-width=".50508"/>
<ellipse cx="72.798" cy="843.16" rx="40.659" ry="38.328" fill="#000700"/>
</g>
</svg>
